<svg width="187" height="41" viewBox="0 0 187 41" fill="none" xmlns="http://www.w3.org/2000/svg">
<path d="M53.96 17.28C53.8533 16.448 53.6293 15.7653 53.288 15.232C52.904 14.656 52.424 14.24 51.848 13.984C51.2933 13.7067 50.5787 13.568 49.704 13.568C48.2533 13.568 47.24 13.8773 46.664 14.496C46.1093 15.0507 45.832 15.8507 45.832 16.896C45.832 17.4933 45.9173 17.984 46.088 18.368C46.2587 18.7307 46.5147 19.0293 46.856 19.264C47.368 19.6267 48.2107 19.8613 49.384 19.968C50.5787 20.0747 51.5813 20.2453 52.392 20.48C53.224 20.6933 53.9493 20.992 54.568 21.376C56.1253 22.3573 56.904 23.8933 56.904 25.984C56.904 26.7947 56.744 27.5627 56.424 28.288C56.104 29.0133 55.656 29.664 55.08 30.24C54.3973 30.9013 53.5867 31.392 52.648 31.712C51.7307 32.032 50.7707 32.192 49.768 32.192C47.5067 32.192 45.704 31.552 44.36 30.272C43.208 29.12 42.5147 27.584 42.28 25.664L42.344 25.632H45.16C45.3307 26.7627 45.7147 27.6053 46.312 28.16C47.144 28.928 48.264 29.312 49.672 29.312C51.016 29.312 52.0827 29.0027 52.872 28.384C53.6613 27.7653 54.056 26.9653 54.056 25.984C54.056 25.536 53.992 25.152 53.864 24.832C53.7573 24.4907 53.544 24.192 53.224 23.936C52.4987 23.3813 51.144 23.0293 49.16 22.88C47.1333 22.7093 45.5973 22.1227 44.552 21.12C43.5067 20.1173 42.984 18.7093 42.984 16.896C42.984 15.0613 43.5493 13.5787 44.68 12.448C45.8747 11.2533 47.5387 10.656 49.672 10.656C51.8907 10.656 53.6187 11.328 54.856 12.672C55.944 13.8453 56.6053 15.3813 56.84 17.28H53.96ZM69.075 31.904V30.56C68.6483 31.008 68.1043 31.3813 67.443 31.68C66.803 31.9787 66.163 32.128 65.523 32.128C64.6697 32.128 63.8483 31.968 63.059 31.648C62.291 31.3067 61.6083 30.8373 61.011 30.24C60.435 29.6427 59.9763 28.96 59.635 28.192C59.315 27.4027 59.155 26.5707 59.155 25.696V16H61.971V25.696C61.971 26.6773 62.323 27.52 63.027 28.224C63.731 28.928 64.563 29.28 65.523 29.28C65.971 29.28 66.419 29.184 66.867 28.992C67.315 28.8 67.699 28.544 68.019 28.224C68.723 27.52 69.075 26.6773 69.075 25.696V16H71.859V31.904H69.075ZM83.1968 32.16C82.1941 32.16 81.2234 31.9253 80.2848 31.456C79.3674 30.9867 78.5674 30.3467 77.8848 29.536V32H75.0688V10.752H77.8848V18.304C78.3541 17.6427 79.0474 17.056 79.9648 16.544C80.9034 16.032 81.9808 15.776 83.1968 15.776C84.2848 15.776 85.3301 15.9893 86.3328 16.416C87.3354 16.8427 88.1994 17.4293 88.9248 18.176C89.6714 18.944 90.2474 19.8293 90.6528 20.832C91.0794 21.8133 91.2928 22.8587 91.2928 23.968C91.2928 25.0773 91.0794 26.1333 90.6528 27.136C90.2474 28.1173 89.6714 28.992 88.9248 29.76C88.1994 30.5067 87.3354 31.0933 86.3328 31.52C85.3301 31.9467 84.2848 32.16 83.1968 32.16ZM83.1968 18.688C82.4928 18.688 81.8101 18.8267 81.1488 19.104C80.5088 19.36 79.9541 19.7333 79.4848 20.224C79.0154 20.7147 78.6421 21.2907 78.3648 21.952C78.0874 22.592 77.9488 23.264 77.9488 23.968C77.9488 25.3973 78.4608 26.6453 79.4848 27.712C79.9541 28.2027 80.5088 28.5867 81.1488 28.864C81.8101 29.1413 82.4928 29.28 83.1968 29.28C83.9008 29.28 84.5728 29.1413 85.2128 28.864C85.8528 28.5867 86.4074 28.2027 86.8768 27.712C87.9008 26.6453 88.4128 25.3973 88.4128 23.968C88.4128 23.264 88.2741 22.592 87.9968 21.952C87.7194 21.2907 87.3461 20.7147 86.8768 20.224C86.4074 19.7333 85.8528 19.36 85.2128 19.104C84.5728 18.8267 83.9008 18.688 83.1968 18.688ZM94.6105 32C94.2052 32 93.8638 31.872 93.5865 31.616C93.3305 31.3387 93.2025 30.9973 93.2025 30.592C93.2025 30.208 93.3305 29.8773 93.5865 29.6C93.8638 29.3227 94.2052 29.184 94.6105 29.184C94.9945 29.184 95.3252 29.3227 95.6025 29.6C95.8798 29.8773 96.0185 30.208 96.0185 30.592C96.0185 30.9973 95.8798 31.3387 95.6025 31.616C95.3252 31.872 94.9945 32 94.6105 32ZM109.593 32.128C108.142 32.128 106.766 31.8507 105.465 31.296C104.164 30.7413 103.022 29.9627 102.041 28.96C101.06 27.9787 100.292 26.8373 99.737 25.536C99.1823 24.2347 98.905 22.848 98.905 21.376C98.905 19.904 99.1717 18.5173 99.705 17.216C100.26 15.9147 101.038 14.7627 102.041 13.76C103.022 12.7787 104.164 12.0107 105.465 11.456C106.766 10.9013 108.142 10.624 109.593 10.624C111.193 10.624 112.708 10.9653 114.137 11.648C115.566 12.3307 116.846 13.344 117.977 14.688L115.801 16.544C114.052 14.5387 111.982 13.536 109.593 13.536C108.548 13.536 107.545 13.7387 106.585 14.144C105.646 14.5493 104.814 15.1147 104.089 15.84C103.364 16.5653 102.798 17.408 102.393 18.368C101.988 19.3067 101.785 20.3093 101.785 21.376C101.785 22.4427 101.988 23.456 102.393 24.416C102.798 25.3547 103.364 26.1867 104.089 26.912C104.814 27.6373 105.646 28.2027 106.585 28.608C107.545 29.0133 108.548 29.216 109.593 29.216C111.982 29.216 114.052 28.2133 115.801 26.208L117.977 28.064C116.825 29.408 115.534 30.4213 114.105 31.104C112.697 31.7867 111.193 32.128 109.593 32.128ZM120.85 32V10.72H123.41V32H120.85ZM136.2 31.904V30.56C135.773 31.008 135.229 31.3813 134.568 31.68C133.928 31.9787 133.288 32.128 132.648 32.128C131.795 32.128 130.973 31.968 130.184 31.648C129.416 31.3067 128.733 30.8373 128.136 30.24C127.56 29.6427 127.101 28.96 126.76 28.192C126.44 27.4027 126.28 26.5707 126.28 25.696V16H129.096V25.696C129.096 26.6773 129.448 27.52 130.152 28.224C130.856 28.928 131.688 29.28 132.648 29.28C133.096 29.28 133.544 29.184 133.992 28.992C134.44 28.8 134.824 28.544 135.144 28.224C135.848 27.52 136.2 26.6773 136.2 25.696V16H138.984V31.904H136.2ZM150.322 32.16C149.319 32.16 148.348 31.9253 147.41 31.456C146.492 30.9867 145.692 30.3467 145.01 29.536V32H142.194V10.752H145.01V18.304C145.479 17.6427 146.172 17.056 147.09 16.544C148.028 16.032 149.106 15.776 150.322 15.776C151.41 15.776 152.455 15.9893 153.458 16.416C154.46 16.8427 155.324 17.4293 156.05 18.176C156.796 18.944 157.372 19.8293 157.778 20.832C158.204 21.8133 158.418 22.8587 158.418 23.968C158.418 25.0773 158.204 26.1333 157.778 27.136C157.372 28.1173 156.796 28.992 156.05 29.76C155.324 30.5067 154.46 31.0933 153.458 31.52C152.455 31.9467 151.41 32.16 150.322 32.16ZM150.322 18.688C149.618 18.688 148.935 18.8267 148.274 19.104C147.634 19.36 147.079 19.7333 146.61 20.224C146.14 20.7147 145.767 21.2907 145.49 21.952C145.212 22.592 145.074 23.264 145.074 23.968C145.074 25.3973 145.586 26.6453 146.61 27.712C147.079 28.2027 147.634 28.5867 148.274 28.864C148.935 29.1413 149.618 29.28 150.322 29.28C151.026 29.28 151.698 29.1413 152.338 28.864C152.978 28.5867 153.532 28.2027 154.002 27.712C155.026 26.6453 155.538 25.3973 155.538 23.968C155.538 23.264 155.399 22.592 155.122 21.952C154.844 21.2907 154.471 20.7147 154.002 20.224C153.532 19.7333 152.978 19.36 152.338 19.104C151.698 18.8267 151.026 18.688 150.322 18.688Z" fill="#7E49F2"/>
<circle cx="17.5" cy="20.5" r="17.5" fill="#7E49F2"/>
<path d="M14.6878 33.262C14.6873 33.2424 14.687 33.2193 14.687 33.1961C14.687 31.4982 16.1305 30.1176 17.9257 30.0814H22.7317C23.618 30.0806 24.4201 29.7419 25.0004 29.195L29.5515 24.9127C29.7621 24.717 29.8926 24.4454 29.8928 24.145V24.1397V24.1328C29.8928 23.5451 29.3865 23.0687 28.7619 23.0687C28.4551 23.0687 28.1769 23.1836 27.9732 23.3702L27.9734 23.3699L22.8728 28.165H21.2641V26.0239C21.839 26.0239 22.3051 25.5853 22.3051 25.0443C22.3051 24.5033 21.839 24.0647 21.264 24.0647H14.7332C11.1585 24.0756 8.26454 26.8025 8.25942 30.1665V33.2395H5.98389V30.167C5.99101 25.621 9.90197 21.9369 14.7308 21.9236H21.2641C22.6138 21.9249 23.7752 22.6823 24.2957 23.7698L24.3042 23.7896L26.3726 21.8433C26.9866 21.2766 27.8286 20.9268 28.7574 20.9268C30.6387 20.9268 32.1639 22.3618 32.1639 24.1321V24.1401V24.1397V24.146C32.1639 25.0387 31.7791 25.847 31.157 26.4317L26.6059 30.7141C25.6164 31.6472 24.2489 32.225 22.7378 32.2268H17.9703C17.4117 32.2427 16.9654 32.6726 16.9654 33.2006C16.9654 33.2079 16.9655 33.2152 16.9657 33.2224V33.2213L14.6878 33.262ZM12.5147 14.5367H25.6786V24.0755H12.5147L12.5147 14.5367ZM23.403 16.6778H14.7902V21.9343H23.4031L23.403 16.6778ZM19.0909 8.19995L28.4422 16.6778H9.73966L19.0909 8.19995ZM22.8012 14.5367L19.0909 11.174L15.3807 14.5367L22.8012 14.5367ZM16.8609 18.8617H21.3095V24.0754H16.8609V18.8617Z" fill="#E6EAFF"/>
</svg>
